# xmcd
#
# Track frame offsets: 
#        150
#        10087
#        19620
#        30570
#        41745
#        50730
#        60120
#        71597
#        82282
#        94357
#        105355
#        119067
#        128817
#        139830
#
# Disc length: 2005 seconds
#
# Revision: 3
# Processed by: cddbd v1.5.1PL0 Copyright (c) Steve Scherf et al.
# Submitted via: ExactAudioCopy v0.90a11
#
DISCID=be07d30e
DTITLE=Various Artist - It's Country Time
DYEAR=1990
DGENRE=Country
TTITLE0=Jhonny Cash - Ballad Of A Teenage Qween
TTITLE1=Hanh Lochlin - Geisha girl
TTITLE2=Patsy Cline - I Can't Forget
TTITLE3=Ned Miller - Do What You Do Well
TTITLE4=Murray Kellum - Long Tall Texan
TTITLE5=Jerry Lee Lewis - One Minute Past Eternity
TTITLE6=Dave Dudly - Six Days On The Road
TTITLE7=Leroy Van Dyke - walk On By
TTITLE8=Jeannie C Riley - Country Girl
TTITLE9=Patti Page - Go On Home
TTITLE10=Webb Pierce - Back Street Affair
TTITLE11=James O'Gwynn - Eay Money
TTITLE12=Jimmy C newman - D.J. For A Day
TTITLE13=Conway Twitty - Born To Sing The Blues
EXTD=YEAR: 1990
EXTT0=
EXTT1=
EXTT2=
EXTT3=
EXTT4=
EXTT5=
EXTT6=
EXTT7=
EXTT8=
EXTT9=
EXTT10=
EXTT11=
EXTT12=
EXTT13=
PLAYORDER=
